<svg width="167" height="40" viewBox="0 0 167 40" fill="none" xmlns="http://www.w3.org/2000/svg">
<g clip-path="url(#clip0_18645_66917)">
<path d="M17.2875 6C5.80121 6 0 8.27416 0 20.0756C0 31.8771 5.80121 34.1513 17.2875 34.1513C28.7738 34.1513 34.575 31.8771 34.575 20.0756C34.575 8.27416 28.7738 6 17.2875 6ZM17.2875 26.7405C7.99185 26.7405 3.29387 25.1859 3.29387 17.1134C3.29387 9.04097 7.99185 7.48109 17.2875 7.48109C26.5832 7.48109 31.2812 9.03572 31.2812 17.1082C31.2812 25.1807 26.5832 26.7353 17.2875 26.7353V26.7405Z" fill="black"/>
<path d="M2.97715 5.92437C4.62408 5.92437 5.95429 4.59559 5.95429 2.96218C5.95429 1.32878 4.6188 0 2.97715 0C1.33549 0 0 1.32878 0 2.96218C0 4.59559 1.33549 5.92437 2.97715 5.92437Z" fill="black"/>
<path d="M13.239 16.2605C14.2895 16.4601 15.1921 15.562 14.9915 14.5168C14.8807 13.9391 14.4056 13.4611 13.8197 13.3509C12.7692 13.1513 11.8666 14.0494 12.0672 15.0945C12.178 15.6723 12.6531 16.1502 13.239 16.2605Z" fill="black"/>
<path d="M20.7556 16.2605C21.8061 16.4601 22.7087 15.562 22.5081 14.5168C22.3973 13.9391 21.9222 13.4611 21.3363 13.3509C20.2858 13.1513 19.3832 14.0494 19.5838 15.0945C19.6946 15.6723 20.1697 16.1502 20.7556 16.2605Z" fill="black"/>
<path d="M17.2877 20.5725C14.1205 20.5725 11.1381 19.3435 8.89995 17.1166L7.56445 18.4454C10.1615 21.0294 13.6138 22.4527 17.2877 22.4527C20.9616 22.4527 24.4138 21.0294 27.0109 18.4454L25.6754 17.1166C23.432 19.3487 20.4549 20.5725 17.2877 20.5725Z" fill="black"/>
<path d="M27.2162 40C28.3828 40 29.0373 38.5662 28.2508 37.6839C26.5194 35.7353 23.2414 35.5568 17.2871 35.5568C11.3328 35.5568 8.06004 35.7353 6.32337 37.6839C5.53686 38.5662 6.19141 40 7.35798 40H27.2162Z" fill="black"/>
<path d="M52.6283 21.5704L54.7978 22.6156C56.867 23.5977 58.4453 24.8687 58.4453 27.4528C58.4453 30.3624 56.1438 32.4528 52.433 32.4528C48.7221 32.4528 46.9115 30.3939 46.3203 28.104L49.0494 26.6019C49.345 28.0095 50.5274 29.4801 52.5333 29.4801C53.9479 29.4801 54.9298 28.7605 54.9298 27.4212C54.9298 26.4759 54.2752 25.8509 52.6969 25.1313L50.7596 24.2175C48.6904 23.2721 47.0804 22.0904 47.0804 19.312C47.0804 16.6965 49.4136 14.5378 52.5702 14.5378C55.7268 14.5378 57.5638 16.2395 58.4506 18.3299L55.9221 19.7689C55.3626 18.4612 54.2488 17.4475 52.6388 17.4475C51.3245 17.4475 50.406 18.167 50.406 19.2805C50.406 20.2941 51.0605 20.8509 52.6388 21.5704H52.6283Z" fill="black"/>
<path d="M69.6786 14.5431C72.7033 14.5431 74.9045 15.9822 75.7227 17.6838H75.823C75.7913 17.3267 75.7543 16.9013 75.7543 16.0189V15.0736H79.006V31.9328H75.7543V30.7248C75.7543 29.9738 75.786 29.4801 75.823 29.0231H75.7227C74.8359 31.0189 72.5027 32.458 69.5467 32.458C64.4211 32.458 61.0059 28.6975 61.0059 23.4979C61.0059 18.2983 64.6217 14.5431 69.6786 14.5431ZM75.6277 23.4664C75.6277 20.0683 73.3262 17.6471 70.1062 17.6471C66.8863 17.6471 64.5848 20.0683 64.5848 23.4664C64.5848 26.8645 66.9496 29.2857 70.1062 29.2857C73.2628 29.2857 75.6277 26.833 75.6277 23.4664Z" fill="black"/>
<path d="M96.4249 20.0998C95.4378 18.6607 93.9281 17.6471 91.7269 17.6471C88.5386 17.6471 86.2741 20.0683 86.2741 23.4664C86.2741 26.8645 88.5386 29.2857 91.7269 29.2857C93.9914 29.2857 95.5697 28.1723 96.5252 26.7017L98.6261 28.8288C97.3117 30.9191 94.8149 32.458 91.7269 32.458C86.4377 32.458 82.6582 28.6345 82.6582 23.4979C82.6582 18.3614 86.5327 14.5431 91.7269 14.5431C94.6513 14.5431 97.0161 15.7878 98.5944 17.9412L96.4249 20.0998Z" fill="black"/>
<path d="M101.931 13.4507C101.931 10.1156 104.644 7.41602 107.996 7.41602H109.88V10.4255H108.276C106.729 10.4255 105.478 11.6702 105.478 13.2091V15.0683H109.748V18.1408H105.478V31.9381H101.931V13.4507Z" fill="black"/>
<path d="M113.274 7.41602H116.822V26.749C116.822 27.8992 117.756 28.8288 118.912 28.8288H121.06V31.9328H118.331C115.539 31.9328 113.269 29.6797 113.269 26.8961V7.41602H113.274Z" fill="black"/>
<path d="M159.378 32.5841C157.414 32.5841 155.799 31.1188 155.625 29.1703L154.627 18.0831C154.595 17.7207 154.294 17.4476 153.93 17.4476C153.54 17.4476 153.239 17.7207 153.207 18.0831L152.209 29.1703C152.035 31.1188 150.42 32.5841 148.456 32.5841C146.709 32.5841 145.205 31.4024 144.793 29.7165L140.834 15.0001H144.381L147.77 29.0022C147.844 29.3173 148.129 29.5379 148.451 29.5379C148.815 29.5379 149.116 29.2648 149.148 28.9024L150.145 17.8152C150.32 15.8667 151.935 14.4014 153.899 14.4014C155.862 14.4014 157.499 15.872 157.678 17.8152L158.676 28.9024C158.707 29.2648 159.008 29.5379 159.373 29.5379C159.7 29.5379 159.98 29.3173 160.053 29.0022L163.442 15.0001H166.99L163.031 29.7165C162.619 31.4077 161.114 32.5894 159.367 32.5894L159.378 32.5841Z" fill="black"/>
<path d="M122.343 23.4979C122.343 18.3351 126.154 14.5431 131.349 14.5431C136.543 14.5431 140.386 18.3351 140.386 23.4979C140.386 28.6607 136.543 32.458 131.349 32.458C126.154 32.458 122.343 28.6345 122.343 23.4979ZM136.77 23.4664C136.77 20.0683 134.537 17.6471 131.349 17.6471C128.16 17.6471 125.927 20.0683 125.927 23.4664C125.927 26.8645 128.197 29.2857 131.349 29.2857C134.5 29.2857 136.77 26.833 136.77 23.4664Z" fill="black"/>
</g>
<defs>
<clipPath id="clip0_18645_66917">
<rect width="167" height="40" fill="white"/>
</clipPath>
</defs>
</svg>
