<svg width="19" height="19" viewBox="0 0 19 19" fill="none" xmlns="http://www.w3.org/2000/svg">
<path d="M8.52026 0.793456C8.7382 -0.272875 10.2618 -0.272876 10.4797 0.793454L11.1296 3.97293C11.5307 5.93551 13.0645 7.46926 15.0271 7.87039L18.2065 8.52026C19.2729 8.7382 19.2729 10.2618 18.2065 10.4797L15.0271 11.1296C13.0645 11.5307 11.5307 13.0645 11.1296 15.0271L10.4797 18.2065C10.2618 19.2729 8.7382 19.2729 8.52026 18.2065L7.8704 15.0271C7.46926 13.0645 5.93552 11.5307 3.97293 11.1296L0.793456 10.4797C-0.272875 10.2618 -0.272876 8.7382 0.793454 8.52026L3.97293 7.8704C5.93551 7.46926 7.46926 5.93552 7.87039 3.97293L8.52026 0.793456Z" fill="black"/>
</svg>
